<?xml version="1.0" standalone="no"?><!DOCTYPE svg PUBLIC "-//W3C//DTD SVG 1.1//EN" "http://www.w3.org/Graphics/SVG/1.1/DTD/svg11.dtd"><svg t="1725347059626" class="icon" viewBox="0 0 1024 1024" version="1.1" xmlns="http://www.w3.org/2000/svg" p-id="7215" width="16" height="16" xmlns:xlink="http://www.w3.org/1999/xlink"><path d="M646.981818 274.618182c27.927273 27.927273 46.545455 65.163636 46.545455 116.363636 0 37.236364-9.309091 65.163636-32.581818 93.090909-9.309091 13.963636-32.581818 32.581818-65.163637 65.163637-18.618182 18.618182-32.581818 32.581818-41.890909 46.545454-13.963636 18.618182-18.618182 41.890909-18.618182 65.163637v23.272727h-51.2v-23.272727c0-23.272727 4.654545-46.545455 13.963637-65.163637 13.963636-23.272727 37.236364-55.854545 79.127272-93.090909 18.618182-18.618182 32.581818-32.581818 37.236364-41.890909 18.618182-23.272727 27.927273-46.545455 27.927273-69.818182 0-37.236364-9.309091-65.163636-32.581818-83.781818-23.272727-23.272727-51.2-32.581818-93.09091-32.581818-46.545455 0-79.127273 13.963636-102.4 46.545454-18.618182 23.272727-27.927273 55.854545-27.927272 102.4H335.127273c0-55.854545 13.963636-102.4 46.545454-139.636363 32.581818-37.236364 79.127273-55.854545 139.636364-55.854546 51.2 0 93.090909 13.963636 125.672727 46.545455z m-107.054545 488.727273c9.309091 9.309091 13.963636 18.618182 13.963636 27.927272 0 13.963636-4.654545 23.272727-13.963636 27.927273-9.309091 9.309091-18.618182 13.963636-27.927273 13.963636-13.963636 0-23.272727-4.654545-32.581818-13.963636-9.309091-9.309091-13.963636-18.618182-13.963637-27.927273 0-13.963636 4.654545-23.272727 13.963637-27.927272 9.309091-9.309091 18.618182-13.963636 32.581818-13.963637l27.927273 13.963637z" fill="#E63C33" p-id="7216"></path><path d="M512 46.545455c256 0 465.454545 209.454545 465.454545 465.454545s-209.454545 465.454545-465.454545 465.454545S46.545455 768 46.545455 512 256 46.545455 512 46.545455m0-46.545455C228.072727 0 0 228.072727 0 512s228.072727 512 512 512 512-228.072727 512-512S795.927273 0 512 0z" fill="#E63C33" p-id="7217"></path></svg>